<?xml version="1.0" encoding="UTF-8"?>
<svg version="1.1" xmlns="http://www.w3.org/2000/svg" width="110" height="110">
<path d="M0 0 C1.98 0.66 3.96 1.32 6 2 C6 1.34 6 0.68 6 0 C27.12 0 48.24 0 70 0 C70 5.28 70 10.56 70 16 C72.97 15.505 72.97 15.505 76 15 C76.495 16.98 76.495 16.98 77 19 C76.01 19 75.02 19 74 19 C74.639375 19.721875 75.27875 20.44375 75.9375 21.1875 C77.98673535 23.98191184 78.61332946 25.61663274 79 29 C79.99 29 80.98 29 82 29 C84.32590854 32.63423209 84.16265833 35.77088331 84 40 C81.125 40.625 81.125 40.625 78 41 C77.34 40.34 76.68 39.68 76 39 C75.01 39.66 74.02 40.32 73 41 C72.67 40.01 72.34 39.02 72 38 C71.01 38 70.02 38 69 38 C69.33 36.02 69.66 34.04 70 32 C68.35 32.33 66.7 32.66 65 33 C65 32.34 65 31.68 65 31 C64.21625 31.185625 63.4325 31.37125 62.625 31.5625 C60 32 60 32 58 31 C57.67 31.66 57.34 32.32 57 33 C57 31.68 57 30.36 57 29 C54.20978154 33.38793691 54.29716866 38.4989463 53.87695312 43.53710938 C53.38081606 48.57446497 52.21137344 52.43866568 50 57 C49.01 57 48.02 57 47 57 C47.061875 58.216875 47.12375 59.43375 47.1875 60.6875 C47.19445578 64.63142502 46.33903825 66.76133166 44 70 C43.31903578 71.32608822 42.64669414 72.65686601 42 74 C40.68 73.34 39.36 72.68 38 72 C37.34 74.31 36.68 76.62 36 79 C41.94 79.33 47.88 79.66 54 80 C54 83.96 54 87.92 54 92 C54.66 92 55.32 92 56 92 C56 91.34 56 90.68 56 90 C56.66 90 57.32 90 58 90 C58 89.34 58 88.68 58 88 C59.32 87.67 60.64 87.34 62 87 C62.103125 86.236875 62.20625 85.47375 62.3125 84.6875 C63.04711194 81.81583516 63.6716065 80.76957906 66 79 C66.66 79 67.32 79 68 79 C68.33 76.36 68.66 73.72 69 71 C69.66 71.33 70.32 71.66 71 72 C71 72.66 71 73.32 71 74 C71.66 74 72.32 74 73 74 C74.6875 75.8125 74.6875 75.8125 76 78 C75.505 79.485 75.505 79.485 75 81 C74.01 81 73.02 81 72 81 C72 80.34 72 79.68 72 79 C71.34 79 70.68 79 70 79 C69.89429687 79.58265625 69.78859375 80.1653125 69.6796875 80.765625 C66.85136471 90.06332982 55.5700084 95.95332773 48 101 C45.91172994 101.03368178 43.82220328 101.05458375 41.734375 101 C38.58578773 101 35.50989658 101.27356944 32.375 101.5625 C27.65650667 101.95984681 23.62908851 101.9258177 19 101 C18.34 101 17.68 101 17 101 C14.9375 100.625 14.9375 100.625 13 100 C12.505 99.01 12.505 99.01 12 98 C11.278125 98.061875 10.55625 98.12375 9.8125 98.1875 C5.4229265 97.89486177 2.94479969 95.81712405 -0.3125 93 C-2 91 -2 91 -2 88 C-2.66 88 -3.32 88 -4 88 C-5.71108689 86.37897032 -7.37253306 84.70496537 -9 83 C-10.0828125 82.0409375 -10.0828125 82.0409375 -11.1875 81.0625 C-19.83878172 71.21793804 -17.22267431 52.18884936 -17 40 C-16.34 40 -15.68 40 -15 40 C-14.7834375 38.6078125 -14.7834375 38.6078125 -14.5625 37.1875 C-14 34 -14 34 -13 31 C-12.01 31.33 -11.02 31.66 -10 32 C-10.08378906 30.97519531 -10.16757813 29.95039063 -10.25390625 28.89453125 C-10.35712798 27.53388121 -10.45997265 26.17320254 -10.5625 24.8125 C-10.61857422 24.13896484 -10.67464844 23.46542969 -10.73242188 22.77148438 C-11.00963763 18.982869 -10.96511161 15.68172206 -10 12 C-8.125 11.375 -8.125 11.375 -6 11 C-4 13 -4 13 -4 15 C-1.69 13.02 0.62 11.04 3 9 C2.01 8.01 1.02 7.02 0 6 C-1 3 -1 3 0 0 Z M27 6 C27 6.33 27 6.66 27 7 C29.97 7 32.94 7 36 7 C36 6.67 36 6.34 36 6 C33.03 6 30.06 6 27 6 Z M36 7 C36 7.33 36 7.66 36 8 C36.58007812 8.03738281 37.16015625 8.07476562 37.7578125 8.11328125 C42.90402639 8.54637846 46.36393721 9.6280609 51 12 C53.13247675 11.63785797 53.13247675 11.63785797 55 11 C48.511583 7.48935892 43.35174806 6.44746779 36 7 Z M14 8 C13.67 8.66 13.34 9.32 13 10 C14.32 9.34 15.64 8.68 17 8 C16.01 8 15.02 8 14 8 Z M21 10 C25 11 25 11 25 11 Z M3 11 C1.35 12.32 -0.3 13.64 -2 15 C-1.67 15.66 -1.34 16.32 -1 17 C0.98 15.35 2.96 13.7 5 12 C4.34 11.67 3.68 11.34 3 11 Z M12 13 C11.67 13.66 11.34 14.32 11 15 C10.21625 15.12375 9.4325 15.2475 8.625 15.375 C5.85169518 15.76817349 5.85169518 15.76817349 4.1875 18.0625 C3.795625 18.701875 3.40375 19.34125 3 20 C3.99 21.485 3.99 21.485 5 23 C5 24.32 5 25.64 5 27 C7.64 27.33 10.28 27.66 13 28 C13.33 27.01 13.66 26.02 14 25 C16.64 24.67 19.28 24.34 22 24 C21.99476318 24.62044189 21.98952637 25.24088379 21.98413086 25.88012695 C21.96334534 28.69090767 21.95033483 31.50167221 21.9375 34.3125 C21.92912109 35.28896484 21.92074219 36.26542969 21.91210938 37.27148438 C21.90888672 38.20927734 21.90566406 39.14707031 21.90234375 40.11328125 C21.89710693 40.97735596 21.89187012 41.84143066 21.88647461 42.73168945 C21.90664477 45.16728714 21.90664477 45.16728714 23 48 C25.64 48 28.28 48 31 48 C31 53.28 31 58.56 31 64 C31.66 64 32.32 64 33 64 C33.66 64.66 34.32 65.32 35 66 C35.33 63.36 35.66 60.72 36 58 C36.66 58 37.32 58 38 58 C38.08636719 57.17757812 38.17273438 56.35515625 38.26171875 55.5078125 C39.13669771 48.55614478 40.46290609 43.1535118 44.07421875 37.12109375 C45.17238505 34.60504185 44.94507974 33.5259404 44 31 C44.66 31 45.32 31 46 31 C46 30.34 46 29.68 46 29 C46.61875 28.71125 47.2375 28.4225 47.875 28.125 C50.13325765 27.06279958 50.13325765 27.06279958 52 25 C53.32 25 54.64 25 56 25 C56.474375 25.495 56.94875 25.99 57.4375 26.5 C58.96378798 28.285826 58.96378798 28.285826 61.6875 28.1875 C62.450625 28.125625 63.21375 28.06375 64 28 C63.59995382 25.04021368 63.59995382 25.04021368 62 22 C59.44526606 20.57664824 56.81962538 19.74752859 54 19 C54 18.01 54 17.02 54 16 C50.86650268 14.95550089 50.01031744 15.06576355 47 16 C46.66871094 15.35675781 46.33742187 14.71351562 45.99609375 14.05078125 C43.07906352 11.05383239 40.02722876 11.28356743 36.0625 11.1875 C35.30630371 11.15672363 34.55010742 11.12594727 33.77099609 11.09423828 C26.51731362 10.85925767 18.94013041 10.6866232 12 13 Z M-9 14 C-8 16 -8 16 -8 16 Z M3 14 C2.67 14.66 2.34 15.32 2 16 C2.66 16 3.32 16 4 16 C3.67 15.34 3.34 14.68 3 14 Z M71 20 C70.67 20.66 70.34 21.32 70 22 C72.97 23.98 72.97 23.98 76 26 C75.21869929 23.50447516 75.21869929 23.50447516 74 21 C73.01 20.67 72.02 20.34 71 20 Z M2 22 C-0.39936931 24.39936931 -0.2866289 25.214085 -0.5 28.5 C-0.77777778 32.77777778 -0.77777778 32.77777778 -3 35 C-3 36.32 -3 37.64 -3 39 C-2.34 39 -1.68 39 -1 39 C-0.67 38.67 -0.34 38.34 0 38 C0.33 38.66 0.66 39.32 1 40 C2.98 40 4.96 40 7 40 C7.39893521 34.94682063 6.20742075 30.9115634 4.65625 26.171875 C4 24 4 24 4 22 C3.34 22 2.68 22 2 22 Z M70 24 C69.12563582 25.73575649 69.12563582 25.73575649 69 28 C70.85164036 30.75256794 70.85164036 30.75256794 73 33 C73.33 32.01 73.66 31.02 74 30 C74.99 30.66 75.98 31.32 77 32 C75.63055898 29.05043472 74.12169591 26.47531189 72 24 C71.34 24 70.68 24 70 24 Z M65 28 C65.99 29.485 65.99 29.485 67 31 C67.66 30.67 68.32 30.34 69 30 C67.68 29.34 66.36 28.68 65 28 Z M73 33 C73.33 33.99 73.66 34.98 74 36 C74 35.01 74 34.02 74 33 C73.67 33 73.34 33 73 33 Z M13 34 C14 36 14 36 14 36 Z M-8 36 C-8.66 37.32 -9.32 38.64 -10 40 C-9.01 39.34 -8.02 38.68 -7 38 C-7.33 37.34 -7.66 36.68 -8 36 Z M14 36 C15 38 15 38 15 38 Z M45 36 C46 38 46 38 46 38 Z M-12 39 C-12 41.64 -12 44.28 -12 47 C-12.66 46.67 -13.32 46.34 -14 46 C-14.08086376 48.93804996 -14.1404283 51.87388075 -14.1875 54.8125 C-14.21263672 55.64587891 -14.23777344 56.47925781 -14.26367188 57.33789062 C-14.27333984 58.14033203 -14.28300781 58.94277344 -14.29296875 59.76953125 C-14.3086792 60.50792236 -14.32438965 61.24631348 -14.34057617 62.00708008 C-13.90771397 64.54002211 -12.8157706 65.25547101 -11 67 C-10.8125 70.1875 -10.8125 70.1875 -11 73 C-10.01 73.33 -9.02 73.66 -8 74 C-8.33 74.99 -8.66 75.98 -9 77 C-7.62514468 78.54166642 -7.62514468 78.54166642 -6 80 C-5.34 80 -4.68 80 -4 80 C-3.67 80.66 -3.34 81.32 -3 82 C-2.1028125 82.433125 -2.1028125 82.433125 -1.1875 82.875 C1.38820998 84.19965085 3.03454804 85.89415861 5 88 C5 87.34 5 86.68 5 86 C5.66 86 6.32 86 7 86 C7.268125 86.598125 7.53625 87.19625 7.8125 87.8125 C8.99917406 89.99847854 10.09599113 91.41332594 12 93 C12.66 93 13.32 93 14 93 C13.67 93.99 13.34 94.98 13 96 C18.8685408 97.14819277 24.0885256 96.77313045 30 96 C30 93.36 30 90.72 30 88 C29.21625 87.773125 28.4325 87.54625 27.625 87.3125 C25 86 25 86 23.75 83.9375 C22.90805874 80.63989675 22.62089904 77.47893033 22.44140625 74.0859375 C21.89912326 71.52329047 21.05395245 70.58462179 19 69 C18.34 69 17.68 69 17 69 C16.93941406 68.22914062 16.87882812 67.45828125 16.81640625 66.6640625 C16.69072266 65.15972656 16.69072266 65.15972656 16.5625 63.625 C16.48128906 62.62726562 16.40007813 61.62953125 16.31640625 60.6015625 C16.15034374 58.02072387 16.15034374 58.02072387 15 56 C13.02 56 11.04 56 9 56 C7.02 52.535 7.02 52.535 5 49 C4.01 49 3.02 49 2 49 C2.33 47.02 2.66 45.04 3 43 C3.99 43.66 4.98 44.32 6 45 C6 43.35 6 41.7 6 40 C1.68607774 40.4793247 -0.16569547 41.7457985 -3 45 C-3.33 43.35 -3.66 41.7 -4 40 C-4.99 40 -5.98 40 -7 40 C-8.67099977 39.68911632 -10.33871537 39.35919668 -12 39 Z M8 39 C9 41 9 41 9 41 Z M15 39 C16 41 16 41 16 41 Z M49 43 C50 45 50 45 50 45 Z M8 44 C9 46 9 46 9 46 Z M10 44 C11 46 11 46 11 46 Z M9 46 C10 48 10 48 10 48 Z M50 46 C49.67 46.66 49.34 47.32 49 48 C49.66 48 50.32 48 51 48 C50.67 47.34 50.34 46.68 50 46 Z M11 47 C12 49 12 49 12 49 Z M40 48 C41 50 41 50 41 50 Z M20 49 C21 51 21 51 21 51 Z M21 51 C21 54 21 54 21 54 Z M25 65 C26 67 26 67 26 67 Z M40 66 C41 68 41 68 41 68 Z M30 67 C30.33 68.98 30.66 70.96 31 73 C31.66 72.01 32.32 71.02 33 70 C32.67 69.01 32.34 68.02 32 67 C31.34 67 30.68 67 30 67 Z M39 68 C40 71 40 71 40 71 Z M29 75 C29.33 75.66 29.66 76.32 30 77 C30.33 76.34 30.66 75.68 31 75 C30.34 75 29.68 75 29 75 Z M35 79 C36 81 36 81 36 81 Z M32 85 C31.01 86.485 31.01 86.485 30 88 C31.32 87.34 32.64 86.68 34 86 C33.34 85.67 32.68 85.34 32 85 Z M36 85 C37 87 37 87 37 87 Z " fill="#F2F2F2" transform="translate(26,0)"/>
<path d="M0 0 C1.24546405 2.49092811 0.7767578 3.41080733 0 6 C0.598125 5.835 1.19625 5.67 1.8125 5.5 C4 5 4 5 7 5 C7.33 4.34 7.66 3.68 8 3 C10.97 3 13.94 3 17 3 C17.33 10.92 17.66 18.84 18 27 C20.64 27 23.28 27 26 27 C26 32.28 26 37.56 26 43 C26.66 43 27.32 43 28 43 C29.07295604 41.05887681 29.07295604 41.05887681 29.4375 39 C30 37 30 37 32 35 C32.52234392 32.97376481 32.97012839 30.92793721 33.375 28.875 C34.26292436 24.75412028 35.19685727 21.15852475 37.1875 17.4375 C39.31093944 14.05796608 39.31093944 14.05796608 39 10 C39.66 10 40.32 10 41 10 C41 9.34 41 8.68 41 8 C44.58757062 4.41242938 44.58757062 4.41242938 47 3 C49.875 3.1875 49.875 3.1875 52 4 C52.495 6.475 52.495 6.475 53 9 C52.34 9 51.68 9 51 9 C49.99110659 14.24036867 49.003743 19.4275063 48.5625 24.75 C48.15150091 28.97415728 46.86023091 32.19865858 45 36 C44.01 36 43.02 36 42 36 C42.061875 37.216875 42.12375 38.43375 42.1875 39.6875 C42.19445578 43.63142502 41.33903825 45.76133166 39 49 C38.31903578 50.32608822 37.64669414 51.65686601 37 53 C35.68 52.34 34.36 51.68 33 51 C32.34 53.31 31.68 55.62 31 58 C36.94 58.33 42.88 58.66 49 59 C49 61.97 49 64.94 49 68 C44.28482495 72.71517505 37.83124876 74.65121685 31.2109375 75.25390625 C29.13889836 75.2506173 27.0674525 75.13783017 25 75 C25 72.36 25 69.72 25 67 C23.35 67 21.7 67 20 67 C16.60633122 61.62669111 16.67287658 57.13053511 17 51 C15.515 50.505 15.515 50.505 14 50 C14 49.34 14 48.68 14 48 C13.34 48 12.68 48 12 48 C11.66127487 46.58461283 11.32925376 45.16762037 11 43.75 C10.814375 42.96109375 10.62875 42.1721875 10.4375 41.359375 C10 39 10 39 10 35 C7.03 35.495 7.03 35.495 4 36 C0 30.25 0 30.25 0 28 C-0.99 28 -1.98 28 -3 28 C-3 26.02 -3 24.04 -3 22 C-1 21 -1 21 0 21 C1.1079454 16.22062767 0.7332924 12.95605774 -0.5625 8.25 C-1.50390625 4.828125 -1.50390625 4.828125 -2 2 C-1.34 1.34 -0.68 0.68 0 0 Z M8 13 C9 15 9 15 9 15 Z M9 15 C10 17 10 17 10 17 Z M40 15 C41 17 41 17 41 17 Z M3 18 C4 20 4 20 4 20 Z M10 18 C11 20 11 20 11 20 Z M44 22 C45 24 45 24 45 24 Z M3 23 C4 25 4 25 4 25 Z M5 23 C6 25 6 25 6 25 Z M4 25 C5 27 5 27 5 27 Z M45 25 C44.67 25.66 44.34 26.32 44 27 C44.66 27 45.32 27 46 27 C45.67 26.34 45.34 25.68 45 25 Z M6 26 C7 28 7 28 7 28 Z M35 27 C36 29 36 29 36 29 Z M15 28 C16 30 16 30 16 30 Z M16 30 C16 33 16 33 16 33 Z M20 44 C21 46 21 46 21 46 Z M35 45 C36 47 36 47 36 47 Z M25 46 C25.33 47.98 25.66 49.96 26 52 C26.66 51.01 27.32 50.02 28 49 C27.67 48.01 27.34 47.02 27 46 C26.34 46 25.68 46 25 46 Z M34 47 C35 50 35 50 35 50 Z M24 54 C24.33 54.66 24.66 55.32 25 56 C25.33 55.34 25.66 54.68 26 54 C25.34 54 24.68 54 24 54 Z M30 58 C31 60 31 60 31 60 Z M27 64 C26.01 65.485 26.01 65.485 25 67 C26.32 66.34 27.64 65.68 29 65 C28.34 64.67 27.68 64.34 27 64 Z M31 64 C32 66 32 66 32 66 Z " fill="#F9F9F9" transform="translate(31,21)"/>
<path d="M0 0 C1.98 0.66 3.96 1.32 6 2 C6 1.34 6 0.68 6 0 C27.12 0 48.24 0 70 0 C70 5.28 70 10.56 70 16 C72.97 15.505 72.97 15.505 76 15 C76.495 16.98 76.495 16.98 77 19 C76.01 19 75.02 19 74 19 C74.639375 19.721875 75.27875 20.44375 75.9375 21.1875 C77.98673535 23.98191184 78.61332946 25.61663274 79 29 C79.99 29 80.98 29 82 29 C84.32590854 32.63423209 84.16265833 35.77088331 84 40 C81.125 40.625 81.125 40.625 78 41 C75.53401431 38.53401431 74.34805991 36.20966645 73 33 C73.3125 30.625 73.3125 30.625 74 29 C74.33 29 74.66 29 75 29 C71.48395899 25.37408271 67.79906895 22.03365714 63.96484375 18.74609375 C62 17 62 17 60.22265625 14.984375 C57.31112488 12.38497617 54.10287409 11.15920536 50.5 9.8125 C49.83613281 9.55275391 49.17226562 9.29300781 48.48828125 9.02539062 C35.33066661 3.94355742 22.03353434 4.87524976 9 10 C8.14535156 10.30035156 7.29070313 10.60070313 6.41015625 10.91015625 C1.46909157 12.80930091 -1.50146571 15.10280147 -4.7109375 19.31640625 C-6.02321374 21.03031855 -7.44605117 22.5051194 -9 24 C-9.66 23.67 -10.32 23.34 -11 23 C-11.08131463 21.56344146 -11.13933559 20.1255517 -11.1875 18.6875 C-11.22230469 17.88699219 -11.25710938 17.08648438 -11.29296875 16.26171875 C-10.93801608 13.52148416 -10.10633718 12.70828921 -8 11 C-6.68 11.66 -5.36 12.32 -4 13 C-4 13.66 -4 14.32 -4 15 C-1.69 13.02 0.62 11.04 3 9 C2.01 8.01 1.02 7.02 0 6 C-1 3 -1 3 0 0 Z M-9 14 C-8 16 -8 16 -8 16 Z M71 20 C70.67 20.66 70.34 21.32 70 22 C72.97 23.98 72.97 23.98 76 26 C75.21869929 23.50447516 75.21869929 23.50447516 74 21 C73.01 20.67 72.02 20.34 71 20 Z " fill="#050505" transform="translate(26,0)"/>
<path d="M0 0 C5.28 0.33 10.56 0.66 16 1 C16.36843556 9.47401792 16.36843556 9.47401792 14.83984375 11.65625 C8.28280596 16.44525425 -0.1261342 17.52492439 -8 17 C-8 14.36 -8 11.72 -8 9 C-6.35 8.67 -4.7 8.34 -3 8 C-2.690625 7.05125 -2.38125 6.1025 -2.0625 5.125 C-1 2 -1 2 0 0 Z M-2 6 C-1 8 -1 8 -1 8 Z " fill="#010101" transform="translate(64,79)"/>
<path d="M0 0 C2.97 0 5.94 0 9 0 C9.33 7.92 9.66 15.84 10 24 C12.64 24 15.28 24 18 24 C18.33 30.27 18.66 36.54 19 43 C18.34 43 17.68 43 17 43 C16.67 44.32 16.34 45.64 16 47 C14.5219966 43.26989328 13.04716816 39.53854677 11.57495117 35.80615234 C10.8347454 33.93134361 10.09221322 32.05745391 9.34960938 30.18359375 C5.67676832 20.86591644 2.16772533 11.50317599 -1 2 C-0.67 1.34 -0.34 0.68 0 0 Z " fill="#010101" transform="translate(39,24)"/>
<path d="M0 0 C0.33 0 0.66 0 1 0 C1 2.64 1 5.28 1 8 C0.01 8.495 0.01 8.495 -1 9 C-0.67 10.32 -0.34 11.64 0 13 C0.33 12.01 0.66 11.02 1 10 C1.33 10.99 1.66 11.98 2 13 C3.65 13 5.3 13 7 13 C6.67 13.66 6.34 14.32 6 15 C5.01 15 4.02 15 3 15 C0.31232422 17.43750025 0.31232422 17.43750025 -2 20 C-2.12375 19.38125 -2.2475 18.7625 -2.375 18.125 C-2.87197356 15.80879168 -2.87197356 15.80879168 -5 14 C-7.10820797 14.3185177 -7.10820797 14.3185177 -9 15 C-8.06652642 13.24784894 -7.1280468 11.49836437 -6.1875 9.75 C-5.66542969 8.77546875 -5.14335937 7.8009375 -4.60546875 6.796875 C-3.20714788 4.36087075 -1.7934365 2.15829034 0 0 Z " fill="#000000" transform="translate(25,26)"/>
<path d="M0 0 C1.7866789 2.68001835 2.9322137 5.03128744 4.125 8 C4.65480469 9.299375 4.65480469 9.299375 5.1953125 10.625 C6 13 6 13 6 16 C5.01 16.33 4.02 16.66 3 17 C-1 11.25 -1 11.25 -1 9 C-1.99 9 -2.98 9 -4 9 C-4 7.02 -4 5.04 -4 3 C-2 2 -2 2 -1 2 C-0.67 1.34 -0.34 0.68 0 0 Z " fill="#000000" transform="translate(32,40)"/>
<path d="M0 0 C0.35915493 4.42957746 0.35915493 4.42957746 -1.0625 6.6875 C-4.28868943 8.87298316 -8.09745502 10 -12 10 C-10.63746417 6.88175879 -9.14891747 4.95262649 -6.5625 2.75 C-5.66724609 1.96882813 -5.66724609 1.96882813 -4.75390625 1.171875 C-3 0 -3 0 0 0 Z " fill="#040404" transform="translate(97,87)"/>
<path d="M0 0 C0.33 0 0.66 0 1 0 C1.34615998 5.65394631 0.43425238 9.03006806 -2 14 C-2.99 14 -3.98 14 -5 14 C-4.28269264 10.76834156 -3.18684926 7.81292078 -1.9375 4.75 C-1.57527344 3.85796875 -1.21304688 2.9659375 -0.83984375 2.046875 C-0.56269531 1.37140625 -0.28554687 0.6959375 0 0 Z " fill="#000000" transform="translate(78,43)"/>
<path d="M0 0 C0.66 0 1.32 0 2 0 C2.37050452 4.32255278 1.37932084 6.43101874 -1 10 C-1.68096422 11.32608822 -2.35330586 12.65686601 -3 14 C-3.66 13.34 -4.32 12.68 -5 12 C-4.35522931 10.37457807 -3.70914857 8.74967576 -3.0625 7.125 C-2.52302734 5.76761719 -2.52302734 5.76761719 -1.97265625 4.3828125 C-1 2 -1 2 0 0 Z " fill="#010101" transform="translate(71,60)"/>
<path d="M0 0 C0.66 0 1.32 0 2 0 C2 4 2 4 0.5 5.75 C0.005 6.1625 -0.49 6.575 -1 7 C-0.01 7 0.98 7 2 7 C2 8.98 2 10.96 2 13 C1.01 13.495 1.01 13.495 0 14 C-3.5625 5.6875 -3.5625 5.6875 -2 1 C-1.67 1.33 -1.34 1.66 -1 2 C-0.67 1.34 -0.34 0.68 0 0 Z " fill="#000000" transform="translate(107,14)"/>
<path d="M0 0 C0.66 0 1.32 0 2 0 C1.979375 1.051875 1.95875 2.10375 1.9375 3.1875 C1.98896802 6.32704904 2.26517187 8.96883396 3 12 C2.67 11.34 2.34 10.68 2 10 C1.34 10 0.68 10 0 10 C-0.33 10.66 -0.66 11.32 -1 12 C-1.12375 11.21625 -1.2475 10.4325 -1.375 9.625 C-1.79117993 6.85942178 -1.79117993 6.85942178 -4 5 C-2.68 5 -1.36 5 0 5 C0 3.35 0 1.7 0 0 Z " fill="#000000" transform="translate(101,64)"/>
<path d="M0 0 C1.9375 0.25 1.9375 0.25 4 1 C4.66 1.99 5.32 2.98 6 4 C1.25 5.125 1.25 5.125 -1 4 C-1.33 4.66 -1.66 5.32 -2 6 C-1.125 1.125 -1.125 1.125 0 0 Z " fill="#010101" transform="translate(85,27)"/>
<path d="M0 0 C1.0326802 2.78823655 1.04509293 3.8677274 0.0625 6.75 C-0.288125 7.4925 -0.63875 8.235 -1 9 C-1.33 9 -1.66 9 -2 9 C-2 7.02 -2 5.04 -2 3 C-2.66 2.67 -3.32 2.34 -4 2 C-2.68 1.34 -1.36 0.68 0 0 Z " fill="#000000" transform="translate(20,41)"/>
<path d="M0 0 C0.99 0.33 1.98 0.66 3 1 C3 2.32 3 3.64 3 5 C1.68 5 0.36 5 -1 5 C-0.67 3.35 -0.34 1.7 0 0 Z " fill="#000000" transform="translate(107,69)"/>
<path d="M0 0 C0.66 0 1.32 0 2 0 C2.33 1.98 2.66 3.96 3 6 C2.67 5.34 2.34 4.68 2 4 C1.34 4 0.68 4 0 4 C0 2.68 0 1.36 0 0 Z " fill="#000000" transform="translate(27,31)"/>
<path d="M0 0 C1.98 0.495 1.98 0.495 4 1 C4 1.66 4 2.32 4 3 C2.35 3 0.7 3 -1 3 C-0.67 2.01 -0.34 1.02 0 0 Z " fill="#000000" transform="translate(106,78)"/>
<path d="M0 0 C2.475 0.495 2.475 0.495 5 1 C4.67 1.66 4.34 2.32 4 3 C2.68 2.67 1.36 2.34 0 2 C0 1.34 0 0.68 0 0 Z " fill="#000000" transform="translate(105,74)"/>
<path d="M0 0 C0.33 0 0.66 0 1 0 C1 2.64 1 5.28 1 8 C0.67 8 0.34 8 0 8 C0 5.36 0 2.72 0 0 Z " fill="#FFFFFF" transform="translate(13,53)"/>
<path d="M0 0 C1.32 0.66 2.64 1.32 4 2 C3.01 2.495 3.01 2.495 2 3 C1.01 2.34 0.02 1.68 -1 1 C-0.67 0.67 -0.34 0.34 0 0 Z " fill="#000000" transform="translate(15,2)"/>
<path d="M0 0 C0.33 1.32 0.66 2.64 1 4 C0.34 4 -0.32 4 -1 4 C-0.67 2.68 -0.34 1.36 0 0 Z " fill="#000000" transform="translate(105,63)"/>
<path d="M0 0 C0.99 0.33 1.98 0.66 3 1 C2.01 1.33 1.02 1.66 0 2 C0 1.34 0 0.68 0 0 Z " fill="#000000" transform="translate(95,63)"/>
<path d="M0 0 C0.66 0 1.32 0 2 0 C1.67 0.99 1.34 1.98 1 3 C0.67 2.01 0.34 1.02 0 0 Z " fill="#000000" transform="translate(72,23)"/>
<path d="M0 0 C0.99 0.495 0.99 0.495 2 1 C2 1.66 2 2.32 2 3 C1.34 3 0.68 3 0 3 C0 2.01 0 1.02 0 0 Z " fill="#000000" transform="translate(21,3)"/>
<path d="M0 0 C0.66 0 1.32 0 2 0 C2 0.66 2 1.32 2 2 C1.34 2 0.68 2 0 2 C0 1.34 0 0.68 0 0 Z " fill="#000000" transform="translate(24,95)"/>
<path d="M0 0 C0.66 0.66 1.32 1.32 2 2 C1.01 2.495 1.01 2.495 0 3 C0 2.01 0 1.02 0 0 Z " fill="#BDBDBD" transform="translate(36,24)"/>
<path d="M0 0 C0.66 0 1.32 0 2 0 C2 0.66 2 1.32 2 2 C1.34 2 0.68 2 0 2 C0 1.34 0 0.68 0 0 Z " fill="#FCFCFC" transform="translate(32,24)"/>
<path d="M0 0 C0.33 0.66 0.66 1.32 1 2 C0.34 1.67 -0.32 1.34 -1 1 C-0.67 0.67 -0.34 0.34 0 0 Z " fill="#FEFEFE" transform="translate(94,84)"/>
<path d="M0 0 C0.66 0.66 1.32 1.32 2 2 C1.34 2 0.68 2 0 2 C0 1.34 0 0.68 0 0 Z " fill="#FDFDFD" transform="translate(16,71)"/>
<path d="M0 0 C0.66 0.66 1.32 1.32 2 2 C1.34 2 0.68 2 0 2 C0 1.34 0 0.68 0 0 Z " fill="#000000" transform="translate(104,68)"/>
<path d="" fill="#000000" transform="translate(0,0)"/>
<path d="" fill="#000000" transform="translate(0,0)"/>
<path d="" fill="#010101" transform="translate(0,0)"/>
<path d="M0 0 C0.99 0.495 0.99 0.495 2 1 C1.01 1.495 1.01 1.495 0 2 C0 1.34 0 0.68 0 0 Z " fill="#000000" transform="translate(21,8)"/>
<path d="M0 0 C3 1 3 1 3 1 Z " fill="#000000" transform="translate(17,1)"/>
<path d="M0 0 C2 1 2 1 2 1 Z " fill="#FEFEFE" transform="translate(18,85)"/>
<path d="" fill="#000000" transform="translate(0,0)"/>
<path d="" fill="#000000" transform="translate(0,0)"/>
<path d="" fill="#FEFEFE" transform="translate(0,0)"/>
<path d="" fill="#000000" transform="translate(0,0)"/>
<path d="M0 0 C2 1 2 1 2 1 Z " fill="#000000" transform="translate(96,67)"/>
<path d="" fill="#000000" transform="translate(0,0)"/>
<path d="" fill="#FEFEFE" transform="translate(0,0)"/>
<path d="" fill="#000000" transform="translate(0,0)"/>
<path d="" fill="#000000" transform="translate(0,0)"/>
<path d="" fill="#FEFEFE" transform="translate(0,0)"/>
<path d="" fill="#000000" transform="translate(0,0)"/>
<path d="M0 0 C2 1 2 1 2 1 Z " fill="#000000" transform="translate(15,6)"/>
<path d="" fill="#010101" transform="translate(0,0)"/>
<path d="" fill="#FDFDFD" transform="translate(0,0)"/>
<path d="" fill="#FBFBFB" transform="translate(0,0)"/>
<path d="" fill="#FEFEFE" transform="translate(0,0)"/>
<path d="" fill="#FEFEFE" transform="translate(0,0)"/>
<path d="" fill="#FEFEFE" transform="translate(0,0)"/>
<path d="" fill="#010101" transform="translate(0,0)"/>
<path d="" fill="#000000" transform="translate(0,0)"/>
<path d="" fill="#FEFEFE" transform="translate(0,0)"/>
<path d="" fill="#FDFDFD" transform="translate(0,0)"/>
<path d="" fill="#000000" transform="translate(0,0)"/>
<path d="" fill="#FCFCFC" transform="translate(0,0)"/>
<path d="" fill="#FEFEFE" transform="translate(0,0)"/>
<path d="" fill="#FFFFFF" transform="translate(0,0)"/>
<path d="" fill="#F5F5F5" transform="translate(0,0)"/>
<path d="" fill="#FEFEFE" transform="translate(0,0)"/>
<path d="" fill="#FEFEFE" transform="translate(0,0)"/>
<path d="" fill="#FFFFFF" transform="translate(0,0)"/>
<path d="" fill="#FFFFFF" transform="translate(0,0)"/>
<path d="" fill="#000000" transform="translate(0,0)"/>
<path d="" fill="#000000" transform="translate(0,0)"/>
<path d="" fill="#000000" transform="translate(0,0)"/>
</svg>
